<svg width="302" height="84" viewBox="0 0 302 84" fill="none" xmlns="http://www.w3.org/2000/svg">
<path d="M21.4063 4.11456L50.3333 33.1771C50.9167 33.7604 51.4375 34.3958 51.8958 35.0833C52.3542 35.7708 52.7396 36.5 53.0521 37.2604C53.3698 38.026 53.6094 38.8125 53.7656 39.625C53.9271 40.4375 54.0104 41.2552 54.0104 42.0833C54.0104 42.9114 53.9271 43.7291 53.7656 44.5416C53.6094 45.3541 53.3698 46.1406 53.0521 46.9062C52.7396 47.6666 52.3542 48.3958 51.8958 49.0833C51.4375 49.7708 50.9167 50.4062 50.3333 50.9896L21.4063 80.0521C13.5052 87.9896 -0.00520649 82.3646 1.50524e-06 71.1354V13.0156C-0.00520649 1.80206 13.5052 -3.82294 21.4063 4.11456Z" fill="#72FFFF"/>
<path d="M21.4063 4.11458C13.5521 -3.77604 0.192717 1.73958 0.00521851 12.8281C0.00521851 12.8281 45.5261 56.0937 38.2865 63.1458L50.3594 51.0156C50.9427 50.4323 51.4636 49.7969 51.9219 49.1094C52.3802 48.4219 52.7656 47.6927 53.0781 46.9323C53.3958 46.1667 53.6302 45.3802 53.7917 44.5677C53.9531 43.7552 54.0365 42.9375 54.0365 42.1094C54.0365 41.2812 53.9531 40.4635 53.7917 39.651C53.6302 38.8385 53.3958 38.0521 53.0781 37.2865C52.7656 36.5208 52.3802 35.7969 51.9219 35.1094C51.4636 34.4219 50.9427 33.7865 50.3594 33.1979L21.4063 4.11458Z" fill="#00D7FF"/>
<path d="M90 8.23438C90 8.77604 89.9479 9.3125 89.8438 9.83854C89.7396 10.3698 89.5833 10.8854 89.375 11.3854C89.1719 11.8854 88.9167 12.3594 88.6198 12.8073C88.3177 13.2604 87.9792 13.6771 87.599 14.0573C87.2188 14.4375 86.8021 14.7812 86.3594 15.0833C85.9115 15.3802 85.4375 15.6354 84.9375 15.8438C84.4427 16.0469 83.9323 16.2031 83.401 16.3125C82.875 16.4167 82.3438 16.4688 81.8021 16.4688C81.2656 16.4688 80.7344 16.4167 80.2031 16.3125C79.6771 16.2031 79.1615 16.0469 78.6667 15.8438C78.1719 15.6354 77.6979 15.3802 77.25 15.0833C76.8021 14.7812 76.3906 14.4375 76.0052 14.0573C75.625 13.6771 75.2865 13.2604 74.9896 12.8073C74.6875 12.3594 74.4375 11.8854 74.2292 11.3854C74.026 10.8854 73.8698 10.3698 73.7656 9.83854C73.6615 9.3125 73.6094 8.77604 73.6094 8.23438C73.6094 7.69271 73.6615 7.15625 73.7656 6.63021C73.8698 6.09896 74.026 5.58333 74.2292 5.08333C74.4375 4.58333 74.6875 4.10937 74.9896 3.66146C75.2865 3.20833 75.625 2.79687 76.0052 2.41146C76.3906 2.03125 76.8021 1.6875 77.25 1.39063C77.6979 1.08854 78.1719 0.833334 78.6667 0.630208C79.1615 0.421875 79.6771 0.265625 80.2031 0.161458C80.7344 0.0520837 81.2656 0 81.8021 0C82.3438 0 82.875 0.0520837 83.401 0.161458C83.9323 0.265625 84.4427 0.421875 84.9375 0.630208C85.4375 0.833334 85.9115 1.08854 86.3594 1.39063C86.8021 1.6875 87.2188 2.03125 87.599 2.41146C87.9792 2.79687 88.3177 3.20833 88.6198 3.66146C88.9167 4.10937 89.1719 4.58333 89.375 5.08333C89.5833 5.58333 89.7396 6.09896 89.8438 6.63021C89.9479 7.15625 90 7.69271 90 8.23438Z" fill="#0170DE"/>
<path d="M90 8.23438C90 8.77604 89.9479 9.3125 89.8438 9.83854C89.7396 10.3698 89.5833 10.8854 89.375 11.3854C89.1719 11.8854 88.9167 12.3594 88.6198 12.8073C88.3177 13.2604 87.9792 13.6771 87.599 14.0573C87.2188 14.4375 86.8021 14.7812 86.3594 15.0833C85.9115 15.3802 85.4375 15.6354 84.9375 15.8438C84.4427 16.0469 83.9323 16.2031 83.401 16.3125C82.875 16.4167 82.3438 16.4688 81.8021 16.4688C81.2656 16.4688 80.7344 16.4167 80.2031 16.3125C79.6771 16.2031 79.1615 16.0469 78.6667 15.8438C78.1719 15.6354 77.6979 15.3802 77.25 15.0833C76.8021 14.7812 76.3906 14.4375 76.0052 14.0573C75.625 13.6771 75.2865 13.2604 74.9896 12.8073C74.6875 12.3594 74.4375 11.8854 74.2292 11.3854C74.026 10.8854 73.8698 10.3698 73.7656 9.83854C73.6615 9.3125 73.6094 8.77604 73.6094 8.23438C73.6094 7.69271 73.6615 7.15625 73.7656 6.63021C73.8698 6.09896 74.026 5.58333 74.2292 5.08333C74.4375 4.58333 74.6875 4.10937 74.9896 3.66146C75.2865 3.20833 75.625 2.79687 76.0052 2.41146C76.3906 2.03125 76.8021 1.6875 77.25 1.39063C77.6979 1.08854 78.1719 0.833334 78.6667 0.630208C79.1615 0.421875 79.6771 0.265625 80.2031 0.161458C80.7344 0.0520837 81.2656 0 81.8021 0C82.3438 0 82.875 0.0520837 83.401 0.161458C83.9323 0.265625 84.4427 0.421875 84.9375 0.630208C85.4375 0.833334 85.9115 1.08854 86.3594 1.39063C86.8021 1.6875 87.2188 2.03125 87.599 2.41146C87.9792 2.79687 88.3177 3.20833 88.6198 3.66146C88.9167 4.10937 89.1719 4.58333 89.375 5.08333C89.5833 5.58333 89.7396 6.09896 89.8438 6.63021C89.9479 7.15625 90 7.69271 90 8.23438Z" fill="#0170DE"/>
<path d="M86.3229 33.2448L57.3958 4.1875C49.6302 -3.61979 28.9271 5.4323 36.0104 12.5469L56.8177 33.4531C57.3958 34.0365 57.9167 34.6719 58.375 35.3594C58.8333 36.0469 59.2187 36.7708 59.5365 37.5365C59.849 38.3021 60.0885 39.0885 60.25 39.901C60.4115 40.7135 60.4896 41.5313 60.4896 42.3594C60.4896 43.1823 60.4115 44.0052 60.25 44.8125C60.0885 45.625 59.849 46.4115 59.5365 47.1771C59.2187 47.9427 58.8333 48.6667 58.375 49.3542C57.9167 50.0417 57.3958 50.6771 56.8177 51.2604L36.026 72.1563C29.6875 78.5156 49.7031 87.8958 57.3958 80.1719L86.3229 51.1146C86.9062 50.5313 87.4323 49.8906 87.8906 49.2031C88.3542 48.5104 88.7448 47.7865 89.0573 47.0156C89.375 46.25 89.6146 45.4635 89.7812 44.6458C89.9427 43.8333 90.0208 43.0104 90.0208 42.1823C90.0208 41.349 89.9427 40.526 89.7812 39.7135C89.6146 38.901 89.375 38.1094 89.0573 37.3438C88.7448 36.5729 88.3542 35.849 87.8906 35.1563C87.4323 34.4688 86.9062 33.8333 86.3229 33.2448Z" fill="#0096FF"/>
<path d="M86.3229 33.2448L57.3958 4.1875C49.6302 -3.61979 28.9271 5.4323 36.0104 12.5469L56.8177 33.4531C57.8177 34.4583 58.6302 35.6042 59.2448 36.8906C59.8594 38.1771 60.2448 39.526 60.401 40.9427C67.5729 49.3958 73.5312 57.6042 74.7708 62.7188L86.3437 51.0938C86.9271 50.5104 87.4479 49.8698 87.9062 49.1823C88.3646 48.4948 88.75 47.7656 89.0677 47C89.3854 46.2344 89.6198 45.4427 89.7812 44.6302C89.9427 43.8177 90.0208 42.9948 90.0208 42.1667C90.0208 41.3385 89.9375 40.5156 89.776 39.7031C89.6146 38.8906 89.375 38.099 89.0573 37.3333C88.7396 36.5677 88.349 35.8438 87.8906 35.1563C87.4323 34.4688 86.9062 33.8281 86.3229 33.2448Z" fill="#0170DE"/>
<path d="M119.716 63.0772V50.5251H129.2C137.096 50.5251 142.737 45.0876 142.737 36.9939C142.737 29.3272 137.039 23.7491 129.086 23.7491H112.518V63.0772H119.716ZM119.716 30.1658H128.799C132.617 30.1658 135.533 33.4053 135.533 36.9939C135.533 41.0408 132.617 44.1085 128.856 44.1085H119.716V30.1658Z" fill="#231F20"/>
<path d="M159.625 63.973C164.453 63.973 168.385 61.7751 170.323 58.072V63.0772H176.974V33.348H170.323V38.3793C168.416 34.6762 164.453 32.4522 159.593 32.4522C151.64 32.4522 145.625 39.5355 145.625 48.2126C145.625 56.947 151.583 63.973 159.625 63.973ZM161.302 57.4939C156.588 57.4939 152.567 53.9939 152.567 48.2126C152.567 42.6293 156.5 38.9314 161.302 38.9314C166.156 38.9314 170.031 43.0355 170.031 48.2126C170.031 53.4783 166.187 57.4939 161.302 57.4939Z" fill="#231F20"/>
<path d="M188.625 28.723C191.458 28.723 193.052 26.9574 193.052 24.7022C193.052 22.5303 191.458 20.7074 188.656 20.7074C185.906 20.7074 184.317 22.5303 184.317 24.7022C184.317 26.9261 185.937 28.723 188.625 28.723ZM192.182 63.0772V33.348H185.182V63.0772H192.182Z" fill="#231F20"/>
<path d="M212.629 63.973C217.603 63.973 221.16 61.197 222.921 58.072V63.0772H229.577V22.3585H222.603V35.1137L222.749 38.2074C221.187 35.4001 217.572 32.4522 212.713 32.4522C204.041 32.4522 198.254 39.5355 198.254 48.2126C198.254 56.947 204.181 63.973 212.629 63.973ZM213.9 57.5251C208.78 57.5251 205.14 53.4783 205.14 48.2126C205.14 42.8064 208.957 38.9314 213.9 38.9314C218.817 38.9314 222.66 43.0095 222.66 48.2126C222.66 53.4783 218.785 57.5251 213.9 57.5251Z" fill="#231F20"/>
<path d="M241.196 28.723C244.03 28.723 245.623 26.9574 245.623 24.7022C245.623 22.5303 244.03 20.7074 241.228 20.7074C238.478 20.7074 236.889 22.5303 236.889 24.7022C236.889 26.9261 238.509 28.723 241.196 28.723ZM244.754 63.0772V33.348H237.754V63.0772H244.754Z" fill="#231F20"/>
<path d="M262.279 63.0772V39.3324H270.06V33.348H262.279V32.1918C262.279 29.848 263.664 27.796 266.269 27.796H270.201V21.9835H264.503C257.795 21.9835 255.279 27.1033 255.279 31.6397V33.348H249.352V39.3324H255.279V63.0772H262.279Z" fill="#231F20"/>
<path d="M276.941 73.2282C283.535 73.2282 286.54 71.2907 290.04 62.4105L301.639 33.348L294.175 33.3793L287.29 51.3636L286.514 54.4001L285.759 51.3376L278.759 33.348H271.389L282.78 61.6866L282.436 62.7022C281.191 65.9678 280.003 67.4418 276.884 67.4418H271.936V73.2282H276.941Z" fill="#231F20"/>
</svg>
