<svg width="58" height="60" viewBox="0 0 58 60" fill="none" xmlns="http://www.w3.org/2000/svg">
<g opacity="0.6">
<path d="M33.1428 9.375C33.1428 7.30078 31.2915 5.625 29 5.625C26.7085 5.625 24.8571 7.30078 24.8571 9.375V26.25H6.21427C3.92275 26.25 2.07141 27.9258 2.07141 30C2.07141 32.0742 3.92275 33.75 6.21427 33.75H24.8571V50.625C24.8571 52.6992 26.7085 54.375 29 54.375C31.2915 54.375 33.1428 52.6992 33.1428 50.625V33.75H51.7857C54.0772 33.75 55.9286 32.0742 55.9286 30C55.9286 27.9258 54.0772 26.25 51.7857 26.25H33.1428V9.375Z" fill="#16A34A"/>
</g>
</svg>
