<svg width="18" height="18" viewBox="0 0 18 18" fill="none" xmlns="http://www.w3.org/2000/svg">
<path d="M17.1077 14.875L13.3577 11.125C14.2014 9.875 14.6389 8.3125 14.4202 6.625C14.0139 3.75 11.6702 1.4375 8.82645 1.0625C4.57645 0.53125 0.982697 4.125 1.51395 8.375C1.88895 11.2188 4.20145 13.5625 7.07645 13.9688C8.76395 14.1875 10.3264 13.75 11.6077 12.9062L15.3264 16.6562C15.8264 17.125 16.6077 17.125 17.1077 16.6562C17.5764 16.1562 17.5764 15.375 17.1077 14.875ZM3.95145 7.5C3.95145 5.3125 5.7327 3.5 7.95145 3.5C10.1389 3.5 11.9514 5.3125 11.9514 7.5C11.9514 9.71875 10.1389 11.5 7.95145 11.5C5.7327 11.5 3.95145 9.71875 3.95145 7.5Z" fill="black"/>
</svg>
